<svg width="134" height="28" viewBox="0 0 134 28" fill="none" xmlns="http://www.w3.org/2000/svg">
<path d="M8.798 20L5.558 14.618H5.486H2.786V20H1.976V7.364H5.45C6.854 7.364 7.904 7.694 8.6 8.354C9.308 9.014 9.662 9.89 9.662 10.982C9.662 11.954 9.386 12.758 8.834 13.394C8.294 14.018 7.502 14.402 6.458 14.546L9.77 20H8.798ZM2.786 13.934H5.486C6.602 13.934 7.436 13.664 7.988 13.124C8.54 12.584 8.816 11.87 8.816 10.982C8.816 9.05 7.694 8.084 5.45 8.084H2.786V13.934ZM20.8678 14.456C20.8678 14.888 20.8558 15.212 20.8318 15.428H12.3898C12.4138 16.304 12.6058 17.042 12.9658 17.642C13.3258 18.242 13.7998 18.692 14.3878 18.992C14.9758 19.292 15.6178 19.442 16.3138 19.442C17.2738 19.442 18.0778 19.208 18.7258 18.74C19.3738 18.26 19.7818 17.612 19.9498 16.796H20.7958C20.6038 17.792 20.1118 18.602 19.3198 19.226C18.5278 19.838 17.5258 20.144 16.3138 20.144C15.4018 20.144 14.5858 19.94 13.8658 19.532C13.1458 19.124 12.5818 18.542 12.1738 17.786C11.7658 17.018 11.5618 16.124 11.5618 15.104C11.5618 14.084 11.7598 13.196 12.1558 12.44C12.5638 11.684 13.1278 11.108 13.8478 10.712C14.5678 10.304 15.3898 10.1 16.3138 10.1C17.2498 10.1 18.0598 10.304 18.7438 10.712C19.4398 11.108 19.9678 11.642 20.3278 12.314C20.6878 12.974 20.8678 13.688 20.8678 14.456ZM20.0578 14.762C20.0938 13.898 19.9378 13.166 19.5898 12.566C19.2538 11.966 18.7918 11.522 18.2038 11.234C17.6158 10.934 16.9798 10.784 16.2958 10.784C15.6118 10.784 14.9758 10.934 14.3878 11.234C13.8118 11.522 13.3378 11.966 12.9658 12.566C12.6058 13.166 12.4138 13.898 12.3898 14.762H20.0578ZM22.8118 15.104C22.8118 14.096 23.0098 13.214 23.4058 12.458C23.8138 11.702 24.3718 11.12 25.0798 10.712C25.7998 10.304 26.6158 10.1 27.5278 10.1C28.5598 10.1 29.4358 10.352 30.1558 10.856C30.8758 11.36 31.3798 12.002 31.6678 12.782V10.226H32.4778V20H31.6678V17.426C31.3798 18.218 30.8698 18.872 30.1378 19.388C29.4178 19.892 28.5478 20.144 27.5278 20.144C26.6158 20.144 25.7998 19.94 25.0798 19.532C24.3718 19.112 23.8138 18.524 23.4058 17.768C23.0098 17 22.8118 16.112 22.8118 15.104ZM31.6678 15.104C31.6678 14.252 31.4878 13.502 31.1278 12.854C30.7798 12.194 30.2998 11.69 29.6878 11.342C29.0758 10.982 28.3918 10.802 27.6358 10.802C26.8438 10.802 26.1478 10.976 25.5478 11.324C24.9478 11.66 24.4798 12.152 24.1438 12.8C23.8078 13.448 23.6398 14.216 23.6398 15.104C23.6398 15.992 23.8078 16.76 24.1438 17.408C24.4798 18.056 24.9478 18.554 25.5478 18.902C26.1598 19.25 26.8558 19.424 27.6358 19.424C28.3918 19.424 29.0758 19.25 29.6878 18.902C30.3118 18.542 30.7978 18.038 31.1458 17.39C31.4938 16.73 31.6678 15.968 31.6678 15.104ZM34.9232 15.104C34.9232 14.096 35.1212 13.214 35.5172 12.458C35.9252 11.702 36.4832 11.12 37.1912 10.712C37.9112 10.304 38.7272 10.1 39.6392 10.1C40.6352 10.1 41.4992 10.352 42.2312 10.856C42.9632 11.348 43.4792 11.99 43.7792 12.782V6.68H44.5892V20H43.7792V17.408C43.4912 18.212 42.9872 18.872 42.2672 19.388C41.5472 19.892 40.6712 20.144 39.6392 20.144C38.7272 20.144 37.9112 19.94 37.1912 19.532C36.4832 19.112 35.9252 18.524 35.5172 17.768C35.1212 17 34.9232 16.112 34.9232 15.104ZM43.7792 15.104C43.7792 14.252 43.5992 13.502 43.2392 12.854C42.8912 12.194 42.4112 11.69 41.7992 11.342C41.1872 10.982 40.5032 10.802 39.7472 10.802C38.9552 10.802 38.2592 10.976 37.6592 11.324C37.0592 11.66 36.5912 12.152 36.2552 12.8C35.9192 13.448 35.7512 14.216 35.7512 15.104C35.7512 15.992 35.9192 16.76 36.2552 17.408C36.5912 18.056 37.0592 18.554 37.6592 18.902C38.2712 19.25 38.9672 19.424 39.7472 19.424C40.5032 19.424 41.1872 19.25 41.7992 18.902C42.4232 18.542 42.9092 18.038 43.2572 17.39C43.6052 16.73 43.7792 15.968 43.7792 15.104ZM64.4086 7.634V20H63.5986V9.326L58.8466 20H58.1986L53.4286 9.326V20H52.6186V7.634H53.4826L58.5226 18.938L63.5626 7.634H64.4086ZM71.6862 20.144C70.7742 20.144 69.9522 19.94 69.2202 19.532C68.4882 19.124 67.9122 18.542 67.4922 17.786C67.0842 17.018 66.8802 16.124 66.8802 15.104C66.8802 14.096 67.0902 13.214 67.5102 12.458C67.9302 11.69 68.5062 11.108 69.2382 10.712C69.9822 10.304 70.8102 10.1 71.7222 10.1C72.6342 10.1 73.4562 10.304 74.1882 10.712C74.9202 11.108 75.4902 11.684 75.8982 12.44C76.3182 13.196 76.5282 14.084 76.5282 15.104C76.5282 16.124 76.3182 17.018 75.8982 17.786C75.4782 18.542 74.8962 19.124 74.1522 19.532C73.4202 19.94 72.5982 20.144 71.6862 20.144ZM71.6862 19.424C72.3942 19.424 73.0542 19.268 73.6662 18.956C74.2902 18.632 74.7882 18.146 75.1602 17.498C75.5322 16.85 75.7182 16.052 75.7182 15.104C75.7182 14.168 75.5322 13.376 75.1602 12.728C74.7882 12.08 74.2962 11.6 73.6842 11.288C73.0722 10.964 72.4122 10.802 71.7042 10.802C70.9962 10.802 70.3362 10.964 69.7242 11.288C69.1242 11.6 68.6382 12.08 68.2662 12.728C67.8942 13.376 67.7082 14.168 67.7082 15.104C67.7082 16.052 67.8882 16.85 68.2482 17.498C68.6202 18.146 69.1062 18.632 69.7062 18.956C70.3182 19.268 70.9782 19.424 71.6862 19.424ZM79.7958 12.242C80.0358 11.522 80.4618 10.976 81.0738 10.604C81.6858 10.22 82.4658 10.028 83.4138 10.028V10.874H83.1438C82.1838 10.874 81.3858 11.15 80.7498 11.702C80.1138 12.242 79.7958 13.13 79.7958 14.366V20H78.9858V10.226H79.7958V12.242ZM94.0807 14.456C94.0807 14.888 94.0687 15.212 94.0447 15.428H85.6027C85.6267 16.304 85.8187 17.042 86.1787 17.642C86.5387 18.242 87.0127 18.692 87.6007 18.992C88.1887 19.292 88.8307 19.442 89.5267 19.442C90.4867 19.442 91.2907 19.208 91.9387 18.74C92.5867 18.26 92.9947 17.612 93.1627 16.796H94.0087C93.8167 17.792 93.3247 18.602 92.5327 19.226C91.7407 19.838 90.7387 20.144 89.5267 20.144C88.6147 20.144 87.7987 19.94 87.0787 19.532C86.3587 19.124 85.7947 18.542 85.3867 17.786C84.9787 17.018 84.7747 16.124 84.7747 15.104C84.7747 14.084 84.9727 13.196 85.3687 12.44C85.7767 11.684 86.3407 11.108 87.0607 10.712C87.7807 10.304 88.6027 10.1 89.5267 10.1C90.4627 10.1 91.2727 10.304 91.9567 10.712C92.6527 11.108 93.1807 11.642 93.5407 12.314C93.9007 12.974 94.0807 13.688 94.0807 14.456ZM93.2707 14.762C93.3067 13.898 93.1507 13.166 92.8027 12.566C92.4667 11.966 92.0047 11.522 91.4167 11.234C90.8287 10.934 90.1927 10.784 89.5087 10.784C88.8247 10.784 88.1887 10.934 87.6007 11.234C87.0247 11.522 86.5507 11.966 86.1787 12.566C85.8187 13.166 85.6267 13.898 85.6027 14.762H93.2707Z" fill="white"/>
<g clip-path="url(#clip0_2563_399)">
<path fill-rule="evenodd" clip-rule="evenodd" d="M105.5 13.9999C105.5 13.8231 105.57 13.6535 105.695 13.5285C105.82 13.4034 105.99 13.3332 106.167 13.3332H129.891L125.695 9.13853C125.569 9.01335 125.499 8.84357 125.499 8.66653C125.499 8.4895 125.569 8.31971 125.695 8.19453C125.82 8.06935 125.99 7.99902 126.167 7.99902C126.344 7.99902 126.513 8.06935 126.639 8.19453L131.972 13.5279C132.034 13.5898 132.083 13.6634 132.117 13.7444C132.151 13.8254 132.168 13.9122 132.168 13.9999C132.168 14.0876 132.151 14.1744 132.117 14.2554C132.083 14.3364 132.034 14.4099 131.972 14.4719L126.639 19.8052C126.513 19.9304 126.344 20.0007 126.167 20.0007C125.99 20.0007 125.82 19.9304 125.695 19.8052C125.569 19.68 125.499 19.5102 125.499 19.3332C125.499 19.1562 125.569 18.9864 125.695 18.8612L129.891 14.6665H106.167C105.99 14.6665 105.82 14.5963 105.695 14.4713C105.57 14.3462 105.5 14.1767 105.5 13.9999Z" fill="white"/>
</g>
<defs>
<clipPath id="clip0_2563_399">
<rect width="28" height="21.3333" fill="white" transform="translate(105.5 3.33331)"/>
</clipPath>
</defs>
</svg>
