<svg width="38" height="38" viewBox="0 0 38 38" fill="none" xmlns="http://www.w3.org/2000/svg">
<rect width="38" height="38" rx="19" fill="white" fill-opacity="0.8"/>
<path d="M25.9307 12.2901C24.6558 11.6939 23.2892 11.2532 21.86 11.0025C21.8473 11 21.8341 11.0016 21.8223 11.0072C21.8105 11.0128 21.8007 11.022 21.7942 11.0337C21.6192 11.3525 21.4242 11.7682 21.2875 12.0966C19.7718 11.8617 18.2309 11.8617 16.7152 12.0966C16.563 11.7326 16.3913 11.3778 16.201 11.0337C16.1946 11.0219 16.1848 11.0124 16.1731 11.0066C16.1613 11.0007 16.1481 10.9987 16.1352 11.0008C14.7069 11.2514 13.3403 11.6921 12.0645 12.2893C12.0535 12.294 12.0442 12.3022 12.0378 12.3126C9.44455 16.266 8.73374 20.1218 9.0829 23.9292C9.08387 23.9386 9.08666 23.9476 9.0911 23.9557C9.09554 23.9639 9.10154 23.9711 9.10873 23.9768C10.6223 25.1195 12.3106 25.9901 14.1028 26.5519C14.1152 26.5559 14.1286 26.5559 14.1411 26.5519C14.1536 26.5479 14.1646 26.54 14.1728 26.5294C14.5577 25.9937 14.9011 25.4277 15.1944 24.8331C15.2119 24.7986 15.1952 24.7571 15.1602 24.7433C14.6219 24.533 14.1003 24.2793 13.6003 23.9845C13.5913 23.9792 13.5837 23.9717 13.5782 23.9626C13.5728 23.9535 13.5695 23.9431 13.5689 23.9324C13.5682 23.9217 13.5701 23.911 13.5744 23.9012C13.5788 23.8915 13.5853 23.883 13.5936 23.8765C13.6986 23.7962 13.8036 23.7123 13.9036 23.6285C13.9126 23.621 13.9234 23.6162 13.9349 23.6146C13.9464 23.6131 13.958 23.6149 13.9686 23.6199C17.241 25.1442 20.7851 25.1442 24.0191 23.6199C24.0297 23.6146 24.0415 23.6126 24.0531 23.614C24.0648 23.6153 24.0758 23.6201 24.085 23.6276C24.185 23.7123 24.2891 23.7962 24.395 23.8765C24.4033 23.8828 24.41 23.8912 24.4144 23.9009C24.4189 23.9106 24.421 23.9212 24.4205 23.9319C24.42 23.9426 24.4169 23.953 24.4116 23.9622C24.4063 23.9714 24.3988 23.9791 24.39 23.9845C23.8916 24.2818 23.3733 24.5333 22.8292 24.7424C22.8208 24.7455 22.8132 24.7505 22.8068 24.7569C22.8005 24.7634 22.7955 24.7711 22.7923 24.7797C22.789 24.7883 22.7876 24.7975 22.7881 24.8067C22.7886 24.8159 22.7909 24.8249 22.795 24.8331C23.095 25.4268 23.4383 25.9919 23.8158 26.5286C23.8237 26.5396 23.8346 26.5478 23.8471 26.5521C23.8596 26.5565 23.8732 26.5567 23.8858 26.5528C25.681 25.9925 27.372 25.1216 28.8873 23.9768C28.8947 23.9714 28.9009 23.9645 28.9055 23.9564C28.9101 23.9484 28.913 23.9394 28.914 23.9301C29.3306 19.5282 28.2157 15.7035 25.9566 12.3143C25.951 12.3033 25.9419 12.2947 25.9307 12.2901ZM15.6835 21.6107C14.6986 21.6107 13.8861 20.687 13.8861 19.5541C13.8861 18.4203 14.6827 17.4974 15.6835 17.4974C16.6918 17.4974 17.4968 18.4281 17.481 19.5541C17.481 20.6878 16.6843 21.6107 15.6835 21.6107ZM22.3292 21.6107C21.3434 21.6107 20.5317 20.687 20.5317 19.5541C20.5317 18.4203 21.3275 17.4974 22.3292 17.4974C23.3375 17.4974 24.1425 18.4281 24.1266 19.5541C24.1266 20.6878 23.3383 21.6107 22.3292 21.6107Z" fill="#3D3D48"/>
</svg>
