<svg width="38" height="38" viewBox="0 0 38 38" fill="none" xmlns="http://www.w3.org/2000/svg">
<rect width="38" height="38" rx="19" fill="white" fill-opacity="0.8"/>
<path fill-rule="evenodd" clip-rule="evenodd" d="M19 8C12.9225 8 8 12.8176 8 18.7656C8 23.5294 11.1488 27.553 15.5213 28.9794C16.0712 29.0736 16.2775 28.7507 16.2775 28.4681C16.2775 28.2124 16.2638 27.3646 16.2638 26.463C13.5 26.9609 12.785 25.8036 12.565 25.198C12.4413 24.8885 11.905 23.9331 11.4375 23.6774C11.0525 23.4755 10.5025 22.9776 11.4237 22.9642C12.29 22.9507 12.9088 23.7447 13.115 24.0676C14.105 25.6959 15.6863 25.2384 16.3188 24.9558C16.415 24.256 16.7038 23.785 17.02 23.5159C14.5725 23.2468 12.015 22.3182 12.015 18.2004C12.015 17.0296 12.4413 16.0607 13.1425 15.3071C13.0325 15.038 12.6475 13.9345 13.2525 12.4543C13.2525 12.4543 14.1737 12.1717 16.2775 13.5577C17.1575 13.3155 18.0925 13.1944 19.0275 13.1944C19.9625 13.1944 20.8975 13.3155 21.7775 13.5577C23.8813 12.1582 24.8025 12.4543 24.8025 12.4543C25.4075 13.9345 25.0225 15.038 24.9125 15.3071C25.6138 16.0607 26.04 17.0162 26.04 18.2004C26.04 22.3317 23.4688 23.2468 21.0212 23.5159C21.42 23.8523 21.7638 24.4983 21.7638 25.5075C21.7638 26.9474 21.75 28.1047 21.75 28.4681C21.75 28.7507 21.9563 29.0871 22.5063 28.9794C24.6899 28.2579 26.5874 26.8843 27.9317 25.0521C29.276 23.2199 29.9993 21.0212 30 18.7656C30 12.8176 25.0775 8 19 8Z" fill="#3D3D48"/>
</svg>
