<svg width="38" height="38" viewBox="0 0 38 38" fill="none" xmlns="http://www.w3.org/2000/svg">
<rect width="38" height="38" rx="19" fill="white"/>
<path fill-rule="evenodd" clip-rule="evenodd" d="M19 9C12.9225 9 8 13.8176 8 19.7656C8 24.5294 11.1488 28.553 15.5213 29.9794C16.0712 30.0736 16.2775 29.7507 16.2775 29.4681C16.2775 29.2124 16.2638 28.3646 16.2638 27.463C13.5 27.9609 12.785 26.8036 12.565 26.198C12.4413 25.8885 11.905 24.9331 11.4375 24.6774C11.0525 24.4755 10.5025 23.9776 11.4237 23.9642C12.29 23.9507 12.9088 24.7447 13.115 25.0676C14.105 26.6959 15.6863 26.2384 16.3188 25.9558C16.415 25.256 16.7038 24.785 17.02 24.5159C14.5725 24.2468 12.015 23.3182 12.015 19.2004C12.015 18.0296 12.4413 17.0607 13.1425 16.3071C13.0325 16.038 12.6475 14.9345 13.2525 13.4543C13.2525 13.4543 14.1737 13.1717 16.2775 14.5577C17.1575 14.3155 18.0925 14.1944 19.0275 14.1944C19.9625 14.1944 20.8975 14.3155 21.7775 14.5577C23.8813 13.1582 24.8025 13.4543 24.8025 13.4543C25.4075 14.9345 25.0225 16.038 24.9125 16.3071C25.6138 17.0607 26.04 18.0162 26.04 19.2004C26.04 23.3317 23.4688 24.2468 21.0212 24.5159C21.42 24.8523 21.7638 25.4983 21.7638 26.5075C21.7638 27.9474 21.75 29.1047 21.75 29.4681C21.75 29.7507 21.9563 30.0871 22.5063 29.9794C24.6899 29.2579 26.5874 27.8843 27.9317 26.0521C29.276 24.2199 29.9993 22.0212 30 19.7656C30 13.8176 25.0775 9 19 9Z" fill="#3D3D48"/>
</svg>
