<svg width="38" height="38" viewBox="0 0 38 38" fill="none" xmlns="http://www.w3.org/2000/svg">
<rect width="38" height="38" rx="19" fill="white" fill-opacity="0.8"/>
<path d="M27.2215 13.6607C26.5882 13.9413 25.9079 14.1309 25.1927 14.2166C25.9306 13.775 26.4827 13.08 26.746 12.2613C26.0526 12.6731 25.2938 12.963 24.5025 13.1184C23.9703 12.5502 23.2655 12.1736 22.4973 12.047C21.7292 11.9205 20.9408 12.0511 20.2545 12.4185C19.5682 12.7859 19.0224 13.3697 18.7019 14.0791C18.3814 14.7885 18.304 15.5839 18.4818 16.3418C17.0769 16.2713 15.7026 15.9061 14.4479 15.27C13.1933 14.634 12.0864 13.7412 11.1991 12.6496C10.8957 13.173 10.7213 13.7797 10.7213 14.4259C10.721 15.0077 10.8642 15.5805 11.1384 16.0936C11.4125 16.6067 11.809 17.0442 12.2928 17.3672C11.7318 17.3494 11.1831 17.1978 10.6925 16.9251V16.9706C10.6924 17.7865 10.9746 18.5773 11.4913 19.2088C12.0079 19.8403 12.7271 20.2736 13.5268 20.4352C13.0064 20.5761 12.4607 20.5968 11.931 20.4959C12.1567 21.1979 12.5962 21.8118 13.1881 22.2516C13.78 22.6915 14.4946 22.9352 15.2318 22.9487C13.9803 23.9312 12.4346 24.4642 10.8434 24.4618C10.5615 24.4619 10.2799 24.4455 10 24.4125C11.6151 25.451 13.4952 26.0021 15.4154 26C21.9154 26 25.4687 20.6165 25.4687 15.9474C25.4687 15.7957 25.4649 15.6425 25.4581 15.4908C26.1493 14.991 26.7459 14.372 27.22 13.6629L27.2215 13.6607Z" fill="#3D3D48"/>
</svg>
