<svg width="622" height="201" viewBox="0 0 622 201" fill="none" xmlns="http://www.w3.org/2000/svg">
<rect x="10" y="0.5" width="612" height="191" fill="url(#paint0_linear_2563_678)" fill-opacity="0.14"/>
<rect x="10.5" y="1" width="611" height="190" stroke="url(#paint1_linear_2563_678)" stroke-opacity="0.36"/>
<path d="M1 2.5V200.5H622" stroke="url(#paint2_linear_2563_678)"/>
<path d="M77.4414 86.3516H87.6719C88.8906 86.3516 90.0566 86.5098 91.1699 86.8262C92.2949 87.1426 93.3379 87.5879 94.2988 88.1621C95.2715 88.7363 96.1504 89.4277 96.9355 90.2363C97.7324 91.0332 98.4121 91.9238 98.9746 92.9082C99.5371 93.8926 99.9707 94.9531 100.275 96.0898C100.58 97.2266 100.732 98.4102 100.732 99.6406C100.732 100.871 100.58 102.055 100.275 103.191C99.9707 104.328 99.5371 105.395 98.9746 106.391C98.4121 107.375 97.7324 108.277 96.9355 109.098C96.1504 109.906 95.2715 110.604 94.2988 111.189C93.3379 111.764 92.2949 112.209 91.1699 112.525C90.0566 112.842 88.8906 113 87.6719 113H77.4414V108.184H79.5684V91.1855H77.4414V86.3516ZM85.4043 91.1855V108.184H87.6367C88.5859 108.184 89.4824 107.961 90.3262 107.516C91.1699 107.07 91.9023 106.467 92.5234 105.705C93.1445 104.932 93.6367 104.029 94 102.998C94.3633 101.955 94.5449 100.836 94.5449 99.6406C94.5449 98.457 94.3633 97.3496 94 96.3184C93.6367 95.2871 93.1445 94.3906 92.5234 93.6289C91.9023 92.8672 91.1699 92.2695 90.3262 91.8359C89.4824 91.4023 88.5859 91.1855 87.6367 91.1855H85.4043ZM107.939 105.037L107.992 105.582C108.121 106.109 108.338 106.572 108.643 106.971C108.959 107.369 109.328 107.703 109.75 107.973C110.172 108.242 110.641 108.447 111.156 108.588C111.672 108.717 112.193 108.781 112.721 108.781C113.248 108.781 113.746 108.752 114.215 108.693C114.695 108.623 115.158 108.535 115.604 108.43C116.049 108.312 116.482 108.184 116.904 108.043C117.326 107.891 117.754 107.732 118.188 107.568L120.121 111.172C119.453 111.582 118.838 111.934 118.275 112.227C117.725 112.508 117.168 112.742 116.605 112.93C116.043 113.117 115.445 113.252 114.812 113.334C114.18 113.428 113.441 113.475 112.598 113.475C111.016 113.475 109.609 113.217 108.379 112.701C107.148 112.174 106.111 111.465 105.268 110.574C104.436 109.684 103.797 108.641 103.352 107.445C102.918 106.25 102.701 104.984 102.701 103.648C102.701 102.312 102.93 101.059 103.387 99.8867C103.855 98.7148 104.512 97.6953 105.355 96.8281C106.199 95.9492 107.207 95.2578 108.379 94.7539C109.551 94.25 110.852 93.998 112.281 93.998C113.711 93.998 114.977 94.2383 116.078 94.7188C117.191 95.1875 118.129 95.8438 118.891 96.6875C119.652 97.5195 120.238 98.5039 120.648 99.6406C121.059 100.766 121.281 101.979 121.316 103.279C121.352 103.572 121.369 103.865 121.369 104.158C121.381 104.439 121.375 104.732 121.352 105.037H107.939ZM112.141 98.3926C111.484 98.3926 110.922 98.4746 110.453 98.6387C109.996 98.791 109.609 99.0078 109.293 99.2891C108.977 99.5586 108.725 99.8691 108.537 100.221C108.35 100.572 108.203 100.941 108.098 101.328H115.709C115.627 100.93 115.51 100.555 115.357 100.203C115.205 99.8516 114.994 99.541 114.725 99.2715C114.455 99.002 114.109 98.791 113.688 98.6387C113.277 98.4746 112.762 98.3926 112.141 98.3926ZM123.373 94.7891H132.883V99.6055H130.668L133.639 107.428L136.504 99.6055H134.535V94.7891H144.045V99.6055H141.619L136.188 113.07H130.826L125.395 99.6055H123.373V94.7891ZM150.9 105.037L150.953 105.582C151.082 106.109 151.299 106.572 151.604 106.971C151.92 107.369 152.289 107.703 152.711 107.973C153.133 108.242 153.602 108.447 154.117 108.588C154.633 108.717 155.154 108.781 155.682 108.781C156.209 108.781 156.707 108.752 157.176 108.693C157.656 108.623 158.119 108.535 158.564 108.43C159.01 108.312 159.443 108.184 159.865 108.043C160.287 107.891 160.715 107.732 161.148 107.568L163.082 111.172C162.414 111.582 161.799 111.934 161.236 112.227C160.686 112.508 160.129 112.742 159.566 112.93C159.004 113.117 158.406 113.252 157.773 113.334C157.141 113.428 156.402 113.475 155.559 113.475C153.977 113.475 152.57 113.217 151.34 112.701C150.109 112.174 149.072 111.465 148.229 110.574C147.396 109.684 146.758 108.641 146.312 107.445C145.879 106.25 145.662 104.984 145.662 103.648C145.662 102.312 145.891 101.059 146.348 99.8867C146.816 98.7148 147.473 97.6953 148.316 96.8281C149.16 95.9492 150.168 95.2578 151.34 94.7539C152.512 94.25 153.812 93.998 155.242 93.998C156.672 93.998 157.938 94.2383 159.039 94.7188C160.152 95.1875 161.09 95.8438 161.852 96.6875C162.613 97.5195 163.199 98.5039 163.609 99.6406C164.02 100.766 164.242 101.979 164.277 103.279C164.312 103.572 164.33 103.865 164.33 104.158C164.342 104.439 164.336 104.732 164.312 105.037H150.9ZM155.102 98.3926C154.445 98.3926 153.883 98.4746 153.414 98.6387C152.957 98.791 152.57 99.0078 152.254 99.2891C151.938 99.5586 151.686 99.8691 151.498 100.221C151.311 100.572 151.164 100.941 151.059 101.328H158.67C158.588 100.93 158.471 100.555 158.318 100.203C158.166 99.8516 157.955 99.541 157.686 99.2715C157.416 99.002 157.07 98.791 156.648 98.6387C156.238 98.4746 155.723 98.3926 155.102 98.3926ZM166.65 85.6484H174.859V108.184H177.672V113H166.65V108.184H169.463V90.4648H166.65V85.6484ZM180.59 103.824C180.59 102.5 180.83 101.258 181.311 100.098C181.791 98.9375 182.459 97.9238 183.314 97.0566C184.17 96.1895 185.189 95.5039 186.373 95C187.557 94.4961 188.857 94.2441 190.275 94.2441C191.693 94.2441 192.994 94.4961 194.178 95C195.373 95.5039 196.398 96.1895 197.254 97.0566C198.109 97.9238 198.771 98.9375 199.24 100.098C199.721 101.258 199.961 102.5 199.961 103.824C199.961 105.148 199.727 106.396 199.258 107.568C198.801 108.729 198.145 109.748 197.289 110.627C196.445 111.494 195.426 112.18 194.23 112.684C193.047 113.188 191.729 113.439 190.275 113.439C188.811 113.439 187.48 113.188 186.285 112.684C185.102 112.18 184.088 111.494 183.244 110.627C182.4 109.76 181.744 108.746 181.275 107.586C180.818 106.414 180.59 105.16 180.59 103.824ZM185.846 103.824C185.846 104.516 185.963 105.154 186.197 105.74C186.432 106.314 186.748 106.812 187.146 107.234C187.557 107.656 188.025 107.984 188.553 108.219C189.092 108.453 189.666 108.57 190.275 108.57C190.896 108.57 191.471 108.459 191.998 108.236C192.537 108.002 193 107.674 193.387 107.252C193.785 106.83 194.096 106.332 194.318 105.758C194.541 105.172 194.652 104.527 194.652 103.824C194.652 103.098 194.541 102.441 194.318 101.855C194.096 101.27 193.785 100.771 193.387 100.361C193 99.9512 192.537 99.6406 191.998 99.4297C191.471 99.207 190.896 99.1016 190.275 99.1133C189.666 99.1016 189.092 99.207 188.553 99.4297C188.025 99.6406 187.557 99.9512 187.146 100.361C186.748 100.771 186.432 101.27 186.197 101.855C185.963 102.441 185.846 103.098 185.846 103.824ZM203.318 94.7891H211.264V95.0527C211.826 94.8066 212.4 94.6133 212.986 94.4727C213.572 94.3203 214.176 94.2441 214.797 94.2441C216.133 94.2441 217.375 94.4961 218.523 95C219.672 95.5039 220.668 96.1895 221.512 97.0566C222.355 97.9238 223.012 98.9375 223.48 100.098C223.961 101.258 224.201 102.488 224.201 103.789C224.201 105.102 223.967 106.338 223.498 107.498C223.041 108.658 222.396 109.672 221.564 110.539C220.732 111.395 219.736 112.074 218.576 112.578C217.428 113.07 216.168 113.316 214.797 113.316C214.023 113.316 213.303 113.24 212.635 113.088C211.967 112.947 211.322 112.742 210.701 112.473V116.463H214.182V121.279H202.299V116.463H205.287V99.6055H203.318V94.7891ZM214.41 99.0957C213.672 99.0957 212.98 99.2891 212.336 99.6758C211.691 100.062 211.146 100.607 210.701 101.311V106.443C211.076 107.041 211.586 107.527 212.23 107.902C212.875 108.277 213.602 108.465 214.41 108.465C215.008 108.465 215.576 108.354 216.115 108.131C216.654 107.896 217.123 107.574 217.521 107.164C217.92 106.742 218.236 106.25 218.471 105.688C218.705 105.113 218.822 104.492 218.822 103.824C218.822 103.086 218.705 102.424 218.471 101.838C218.248 101.252 217.938 100.76 217.539 100.361C217.141 99.9512 216.672 99.6406 216.133 99.4297C215.594 99.207 215.02 99.0957 214.41 99.0957ZM226.715 94.7891H235.047V96.3711C235.797 95.7734 236.641 95.2988 237.578 94.9473C238.516 94.5957 239.482 94.4199 240.479 94.4199C241.861 94.4199 243.045 94.666 244.029 95.1582C245.025 95.6387 245.805 96.377 246.367 97.373C246.754 96.9395 247.188 96.5469 247.668 96.1953C248.16 95.832 248.682 95.5215 249.232 95.2637C249.783 94.9941 250.357 94.7891 250.955 94.6484C251.564 94.4961 252.186 94.4199 252.818 94.4199C255.045 94.4199 256.756 95.0352 257.951 96.2656C259.146 97.4961 259.744 99.2949 259.744 101.662V108.184H262.328V113H254.014V102.559C254.014 101.527 253.744 100.719 253.205 100.133C252.678 99.5469 251.939 99.2539 250.99 99.2539C250.334 99.2539 249.713 99.4121 249.127 99.7285C248.553 100.033 247.979 100.566 247.404 101.328C247.416 101.457 247.422 101.592 247.422 101.732C247.422 101.861 247.422 101.996 247.422 102.137V108.184H250.059V113H241.744V102.523C241.744 102.031 241.668 101.586 241.516 101.188C241.363 100.789 241.152 100.449 240.883 100.168C240.613 99.8867 240.291 99.6699 239.916 99.5176C239.553 99.3535 239.148 99.2656 238.703 99.2539C238.117 99.2422 237.508 99.3711 236.875 99.6406C236.254 99.9102 235.656 100.408 235.082 101.135V108.184H238V113H226.68V108.184H229.387V99.6055H226.715V94.7891ZM269.307 105.037L269.359 105.582C269.488 106.109 269.705 106.572 270.01 106.971C270.326 107.369 270.695 107.703 271.117 107.973C271.539 108.242 272.008 108.447 272.523 108.588C273.039 108.717 273.561 108.781 274.088 108.781C274.615 108.781 275.113 108.752 275.582 108.693C276.062 108.623 276.525 108.535 276.971 108.43C277.416 108.312 277.85 108.184 278.271 108.043C278.693 107.891 279.121 107.732 279.555 107.568L281.488 111.172C280.82 111.582 280.205 111.934 279.643 112.227C279.092 112.508 278.535 112.742 277.973 112.93C277.41 113.117 276.812 113.252 276.18 113.334C275.547 113.428 274.809 113.475 273.965 113.475C272.383 113.475 270.977 113.217 269.746 112.701C268.516 112.174 267.479 111.465 266.635 110.574C265.803 109.684 265.164 108.641 264.719 107.445C264.285 106.25 264.068 104.984 264.068 103.648C264.068 102.312 264.297 101.059 264.754 99.8867C265.223 98.7148 265.879 97.6953 266.723 96.8281C267.566 95.9492 268.574 95.2578 269.746 94.7539C270.918 94.25 272.219 93.998 273.648 93.998C275.078 93.998 276.344 94.2383 277.445 94.7188C278.559 95.1875 279.496 95.8438 280.258 96.6875C281.02 97.5195 281.605 98.5039 282.016 99.6406C282.426 100.766 282.648 101.979 282.684 103.279C282.719 103.572 282.736 103.865 282.736 104.158C282.748 104.439 282.742 104.732 282.719 105.037H269.307ZM273.508 98.3926C272.852 98.3926 272.289 98.4746 271.82 98.6387C271.363 98.791 270.977 99.0078 270.66 99.2891C270.344 99.5586 270.092 99.8691 269.904 100.221C269.717 100.572 269.57 100.941 269.465 101.328H277.076C276.994 100.93 276.877 100.555 276.725 100.203C276.572 99.8516 276.361 99.541 276.092 99.2715C275.822 99.002 275.477 98.791 275.055 98.6387C274.645 98.4746 274.129 98.3926 273.508 98.3926ZM300.402 102.523C300.402 101.504 300.133 100.707 299.594 100.133C299.055 99.5469 298.34 99.2539 297.449 99.2539C296.84 99.2539 296.225 99.3887 295.604 99.6582C294.982 99.9277 294.379 100.432 293.793 101.17V108.184H296.746V113H285.426V108.184H288.098V99.6055H285.461V94.7891H293.758V96.3887C294.52 95.791 295.369 95.3223 296.307 94.9824C297.256 94.6309 298.252 94.4551 299.295 94.4551C301.486 94.4551 303.174 95.0703 304.357 96.3008C305.541 97.5195 306.133 99.3066 306.133 101.662V108.184H308.717V113H300.402V102.523ZM317.963 94.7891H321.602V99.3945H317.928L317.893 107.094C317.893 107.539 317.928 107.902 317.998 108.184C318.068 108.453 318.168 108.67 318.297 108.834C318.438 108.998 318.602 109.109 318.789 109.168C318.977 109.227 319.193 109.256 319.439 109.256C319.885 109.256 320.277 109.215 320.617 109.133C320.957 109.039 321.297 108.934 321.637 108.816L322.393 112.209C321.795 112.584 321.127 112.883 320.389 113.105C319.662 113.328 318.795 113.439 317.787 113.439C317.072 113.439 316.387 113.316 315.73 113.07C315.086 112.824 314.518 112.455 314.025 111.963C313.533 111.459 313.141 110.832 312.848 110.082C312.555 109.332 312.414 108.459 312.426 107.463L312.479 99.3945H309.859V94.7891H312.496L312.531 90.4297L317.998 87.8281L317.963 94.7891ZM338.617 96.7227C339.18 96.5117 339.783 96.3359 340.428 96.1953C341.084 96.043 341.787 95.9668 342.537 95.9668C343.732 95.9668 344.863 96.1543 345.93 96.5293C347.008 96.8926 347.951 97.4375 348.76 98.1641C349.58 98.8789 350.23 99.7637 350.711 100.818C351.191 101.873 351.432 103.092 351.432 104.475C351.432 105.963 351.168 107.275 350.641 108.412C350.113 109.537 349.416 110.48 348.549 111.242C347.682 112.004 346.691 112.578 345.578 112.965C344.477 113.352 343.346 113.545 342.186 113.545C341.037 113.545 339.947 113.393 338.916 113.088C337.896 112.795 336.977 112.35 336.156 111.752C335.336 111.154 334.639 110.41 334.064 109.52C333.502 108.617 333.115 107.568 332.904 106.373L338.336 104.896C338.406 105.447 338.553 105.939 338.775 106.373C338.998 106.807 339.273 107.176 339.602 107.48C339.941 107.785 340.328 108.02 340.762 108.184C341.207 108.348 341.682 108.43 342.186 108.43C342.748 108.43 343.264 108.324 343.732 108.113C344.201 107.902 344.6 107.615 344.928 107.252C345.256 106.877 345.508 106.443 345.684 105.951C345.871 105.459 345.965 104.926 345.965 104.352C345.965 103.871 345.871 103.402 345.684 102.945C345.496 102.488 345.227 102.084 344.875 101.732C344.523 101.381 344.102 101.1 343.609 100.889C343.117 100.678 342.572 100.572 341.975 100.572C341.213 100.572 340.551 100.648 339.988 100.801C339.438 100.941 338.875 101.146 338.301 101.416L333.537 100.537V86.3516H350.465V91.7305H338.617V96.7227ZM355.861 92.4863C355.861 91.6074 356.025 90.7754 356.354 89.9902C356.682 89.2051 357.139 88.5195 357.725 87.9336C358.322 87.3359 359.025 86.8672 359.834 86.5273C360.654 86.1758 361.551 86 362.523 86C363.496 86 364.387 86.1758 365.195 86.5273C366.016 86.8672 366.719 87.3359 367.305 87.9336C367.902 88.5195 368.365 89.2051 368.693 89.9902C369.021 90.7754 369.186 91.6074 369.186 92.4863C369.186 93.3535 369.021 94.1797 368.693 94.9648C368.377 95.7383 367.926 96.4238 367.34 97.0215C366.766 97.6074 366.068 98.0762 365.248 98.4277C364.428 98.7793 363.52 98.9551 362.523 98.9551C361.516 98.9551 360.602 98.7852 359.781 98.4453C358.973 98.0938 358.275 97.625 357.689 97.0391C357.104 96.4414 356.652 95.75 356.336 94.9648C356.02 94.1797 355.861 93.3535 355.861 92.4863ZM362.523 90.0605C362.184 90.0605 361.861 90.1191 361.557 90.2363C361.264 90.3535 361.006 90.5176 360.783 90.7285C360.561 90.9395 360.385 91.1973 360.256 91.502C360.139 91.7949 360.08 92.123 360.08 92.4863C360.08 92.8145 360.139 93.1309 360.256 93.4355C360.385 93.7285 360.561 93.9863 360.783 94.209C361.006 94.4316 361.264 94.6074 361.557 94.7363C361.861 94.8652 362.184 94.9297 362.523 94.9297C362.863 94.9297 363.18 94.8652 363.473 94.7363C363.777 94.6074 364.035 94.4375 364.246 94.2266C364.469 94.0039 364.645 93.7461 364.773 93.4531C364.902 93.1484 364.967 92.8262 364.967 92.4863C364.967 92.123 364.902 91.7949 364.773 91.502C364.645 91.1973 364.469 90.9395 364.246 90.7285C364.035 90.5176 363.777 90.3535 363.473 90.2363C363.18 90.1191 362.863 90.0605 362.523 90.0605ZM376.234 85.9297H380.91L362.893 113H358.217L376.234 85.9297ZM370.152 106.338C370.152 105.459 370.316 104.627 370.645 103.842C370.973 103.057 371.43 102.371 372.016 101.785C372.613 101.188 373.316 100.719 374.125 100.379C374.945 100.027 375.842 99.8516 376.814 99.8516C377.787 99.8516 378.678 100.027 379.486 100.379C380.307 100.719 381.01 101.188 381.596 101.785C382.193 102.371 382.656 103.057 382.984 103.842C383.312 104.627 383.477 105.459 383.477 106.338C383.477 107.205 383.312 108.031 382.984 108.816C382.668 109.602 382.217 110.293 381.631 110.891C381.057 111.477 380.359 111.945 379.539 112.297C378.719 112.648 377.811 112.824 376.814 112.824C375.818 112.824 374.91 112.654 374.09 112.314C373.27 111.963 372.566 111.494 371.98 110.908C371.406 110.311 370.955 109.619 370.627 108.834C370.311 108.049 370.152 107.217 370.152 106.338ZM376.814 103.93C376.475 103.93 376.152 103.988 375.848 104.105C375.555 104.223 375.297 104.387 375.074 104.598C374.852 104.809 374.676 105.061 374.547 105.354C374.43 105.646 374.371 105.975 374.371 106.338C374.371 106.678 374.43 106.994 374.547 107.287C374.676 107.58 374.852 107.838 375.074 108.061C375.297 108.283 375.555 108.459 375.848 108.588C376.152 108.717 376.475 108.781 376.814 108.781C377.154 108.781 377.471 108.723 377.764 108.605C378.068 108.477 378.326 108.301 378.537 108.078C378.76 107.855 378.936 107.598 379.064 107.305C379.193 107 379.258 106.678 379.258 106.338C379.258 105.975 379.193 105.646 379.064 105.354C378.936 105.061 378.76 104.809 378.537 104.598C378.326 104.387 378.068 104.223 377.764 104.105C377.471 103.988 377.154 103.93 376.814 103.93ZM393.584 108.184H396.309V91.1855H393.584V86.3164L406.574 86.3516C407.781 86.3516 408.883 86.5684 409.879 87.002C410.887 87.4238 411.754 88.0039 412.48 88.7422C413.207 89.4688 413.77 90.3242 414.168 91.3086C414.578 92.2812 414.783 93.3184 414.783 94.4199C414.783 95.709 414.555 96.7754 414.098 97.6191C413.652 98.4629 413.014 99.1426 412.182 99.6582C413.061 100.221 413.752 100.918 414.256 101.75C414.771 102.57 415.029 103.572 415.029 104.756C415.029 105.963 414.818 107.07 414.396 108.078C413.986 109.086 413.418 109.959 412.691 110.697C411.977 111.424 411.127 111.992 410.143 112.402C409.158 112.801 408.098 113 406.961 113H393.584V108.184ZM402.145 101.979V108.184H406.574C406.914 108.184 407.23 108.096 407.523 107.92C407.828 107.744 408.086 107.516 408.297 107.234C408.52 106.941 408.695 106.607 408.824 106.232C408.953 105.846 409.018 105.447 409.018 105.037C409.018 104.604 408.953 104.205 408.824 103.842C408.695 103.467 408.52 103.145 408.297 102.875C408.074 102.594 407.811 102.377 407.506 102.225C407.213 102.061 406.902 101.979 406.574 101.979H402.145ZM402.145 91.1855V97.1621H406.328C406.656 97.1621 406.967 97.0801 407.26 96.916C407.553 96.752 407.805 96.5352 408.016 96.2656C408.238 95.9844 408.414 95.6738 408.543 95.334C408.672 94.9824 408.736 94.6191 408.736 94.2441C408.736 93.8809 408.672 93.5176 408.543 93.1543C408.414 92.791 408.238 92.4629 408.016 92.1699C407.805 91.877 407.553 91.6426 407.26 91.4668C406.967 91.2793 406.656 91.1855 406.328 91.1855H402.145ZM428.67 94.7891H437.283V108.184H439.48V113H431.764V111.453C431.143 112.016 430.416 112.449 429.584 112.754C428.752 113.059 427.791 113.211 426.701 113.211C425.693 113.211 424.744 113.053 423.854 112.736C422.963 112.42 422.184 111.945 421.516 111.312C420.859 110.668 420.338 109.865 419.951 108.904C419.576 107.943 419.389 106.812 419.389 105.512V99.6055H417.016V94.7891H425.066V105.512C425.066 106.73 425.377 107.645 425.998 108.254C426.619 108.852 427.428 109.15 428.424 109.15C429.127 109.15 429.766 108.934 430.34 108.5C430.914 108.066 431.33 107.48 431.588 106.742V99.6055H428.67V94.7891ZM441.643 94.7891H450.572V99.6055H449.166L451.785 106.426L454.475 99.6055H452.91V94.7891H461.84V99.6055H459.854L452.805 116.463H455.934V121.279H444.631V116.463H447.812L449.184 113L443.488 99.6055H441.643V94.7891ZM473.705 85.6484H478.205L468.045 113H463.439L473.705 85.6484ZM491.582 93.8574C491.523 93.4473 491.377 93.0605 491.143 92.6973C490.92 92.334 490.627 92.0234 490.264 91.7656C489.912 91.4961 489.508 91.2852 489.051 91.1328C488.605 90.9805 488.137 90.9043 487.645 90.9043C487.199 90.9043 486.783 90.9512 486.396 91.0449C486.01 91.1387 485.67 91.2852 485.377 91.4844C485.096 91.6719 484.867 91.918 484.691 92.2227C484.527 92.5273 484.445 92.8906 484.445 93.3125C484.445 93.8398 484.557 94.2617 484.779 94.5781C485.014 94.8828 485.307 95.1348 485.658 95.334C486.021 95.5332 486.42 95.6914 486.854 95.8086C487.287 95.9258 487.709 96.0547 488.119 96.1953L492.953 97.8125C493.621 98.0469 494.248 98.3691 494.834 98.7793C495.42 99.1895 495.924 99.6875 496.346 100.273C496.779 100.859 497.119 101.533 497.365 102.295C497.611 103.057 497.734 103.912 497.734 104.861C497.734 106.15 497.494 107.328 497.014 108.395C496.545 109.461 495.883 110.375 495.027 111.137C494.172 111.898 493.146 112.49 491.951 112.912C490.756 113.334 489.432 113.545 487.979 113.545C486.959 113.545 485.992 113.428 485.078 113.193C484.176 112.971 483.35 112.643 482.6 112.209C481.85 111.775 481.193 111.26 480.631 110.662C480.068 110.053 479.629 109.367 479.312 108.605H477.502V103.314H483.865V104.404C483.865 104.932 483.947 105.418 484.111 105.863C484.287 106.309 484.545 106.695 484.885 107.023C485.225 107.352 485.652 107.609 486.168 107.797C486.684 107.973 487.287 108.061 487.979 108.061C489.033 108.061 489.836 107.82 490.387 107.34C490.938 106.848 491.213 106.168 491.213 105.301C491.213 104.855 491.113 104.486 490.914 104.193C490.727 103.889 490.48 103.637 490.176 103.438C489.871 103.227 489.531 103.051 489.156 102.91C488.781 102.77 488.412 102.641 488.049 102.523L484.023 101.223C483.262 100.988 482.523 100.66 481.809 100.238C481.105 99.8164 480.479 99.2891 479.928 98.6562C479.389 98.0234 478.955 97.2852 478.627 96.4414C478.311 95.5859 478.152 94.6133 478.152 93.5234C478.152 92.2578 478.387 91.1328 478.855 90.1484C479.324 89.1523 479.98 88.3145 480.824 87.6348C481.668 86.9551 482.67 86.4395 483.83 86.0879C484.99 85.7363 486.262 85.5605 487.645 85.5605C488.734 85.5605 489.742 85.6895 490.668 85.9473C491.594 86.1934 492.42 86.5273 493.146 86.9492C493.885 87.3711 494.506 87.8574 495.01 88.4082C495.525 88.9473 495.918 89.5098 496.188 90.0957H497.945V95.4043H491.582V93.8574ZM504.818 105.037L504.871 105.582C505 106.109 505.217 106.572 505.521 106.971C505.838 107.369 506.207 107.703 506.629 107.973C507.051 108.242 507.52 108.447 508.035 108.588C508.551 108.717 509.072 108.781 509.6 108.781C510.127 108.781 510.625 108.752 511.094 108.693C511.574 108.623 512.037 108.535 512.482 108.43C512.928 108.312 513.361 108.184 513.783 108.043C514.205 107.891 514.633 107.732 515.066 107.568L517 111.172C516.332 111.582 515.717 111.934 515.154 112.227C514.604 112.508 514.047 112.742 513.484 112.93C512.922 113.117 512.324 113.252 511.691 113.334C511.059 113.428 510.32 113.475 509.477 113.475C507.895 113.475 506.488 113.217 505.258 112.701C504.027 112.174 502.99 111.465 502.146 110.574C501.314 109.684 500.676 108.641 500.23 107.445C499.797 106.25 499.58 104.984 499.58 103.648C499.58 102.312 499.809 101.059 500.266 99.8867C500.734 98.7148 501.391 97.6953 502.234 96.8281C503.078 95.9492 504.086 95.2578 505.258 94.7539C506.43 94.25 507.73 93.998 509.16 93.998C510.59 93.998 511.855 94.2383 512.957 94.7188C514.07 95.1875 515.008 95.8438 515.77 96.6875C516.531 97.5195 517.117 98.5039 517.527 99.6406C517.938 100.766 518.16 101.979 518.195 103.279C518.23 103.572 518.248 103.865 518.248 104.158C518.26 104.439 518.254 104.732 518.23 105.037H504.818ZM509.02 98.3926C508.363 98.3926 507.801 98.4746 507.332 98.6387C506.875 98.791 506.488 99.0078 506.172 99.2891C505.855 99.5586 505.604 99.8691 505.416 100.221C505.229 100.572 505.082 100.941 504.977 101.328H512.588C512.506 100.93 512.389 100.555 512.236 100.203C512.084 99.8516 511.873 99.541 511.604 99.2715C511.334 99.002 510.988 98.791 510.566 98.6387C510.156 98.4746 509.641 98.3926 509.02 98.3926ZM520.568 85.6484H528.777V108.184H531.59V113H520.568V108.184H523.381V90.4648H520.568V85.6484ZM534.279 85.6484H542.488V108.184H545.301V113H534.279V108.184H537.092V90.4648H534.279V85.6484Z" fill="white"/>
<defs>
<linearGradient id="paint0_linear_2563_678" x1="10" y1="191.499" x2="651.799" y2="191.499" gradientUnits="userSpaceOnUse">
<stop stop-color="#4AB0FF" stop-opacity="0.76"/>
<stop stop-color="#46A5FF"/>
<stop offset="1" stop-color="#C628F7" stop-opacity="0.44"/>
</linearGradient>
<linearGradient id="paint1_linear_2563_678" x1="10" y1="106.26" x2="622.021" y2="96.5224" gradientUnits="userSpaceOnUse">
<stop stop-color="#F1E71A"/>
<stop offset="1" stop-color="#D515FE"/>
</linearGradient>
<linearGradient id="paint2_linear_2563_678" x1="1" y1="112.136" x2="622.028" y2="102.464" gradientUnits="userSpaceOnUse">
<stop stop-color="#F1E71A"/>
<stop offset="1" stop-color="#D515FE"/>
</linearGradient>
</defs>
</svg>
