<svg width="622" height="201" viewBox="0 0 622 201" fill="none" xmlns="http://www.w3.org/2000/svg">
<rect x="10" y="0.5" width="612" height="191" fill="url(#paint0_linear_2563_677)" fill-opacity="0.14"/>
<rect x="10.5" y="1" width="611" height="190" stroke="url(#paint1_linear_2563_677)" stroke-opacity="0.36"/>
<path d="M1 2.5V200.5H622" stroke="url(#paint2_linear_2563_677)"/>
<path d="M43.5137 30.3516H52.1621V33.3926H49.4902V53.9766H58.6836C58.8711 53.9766 59.0586 53.9355 59.2461 53.8535C59.4336 53.7598 59.6035 53.6426 59.7559 53.502C59.9082 53.3613 60.0312 53.2031 60.125 53.0273C60.2188 52.8398 60.2656 52.6523 60.2656 52.4648V49.1074H63.6055V57H43.5137V53.9766H46.0449V33.3926H43.5137V30.3516ZM65.3984 38.7891H71.3398V53.9766H74.082V57H65.4336V53.9766H68.0352V41.8125H65.3984V38.7891ZM67.4199 32.3379C67.4199 32.0332 67.4785 31.7461 67.5957 31.4766C67.7246 31.1953 67.8887 30.9551 68.0879 30.7559C68.2988 30.5449 68.5449 30.3809 68.8262 30.2637C69.1074 30.1348 69.4062 30.0703 69.7227 30.0703C70.0273 30.0703 70.3145 30.1348 70.584 30.2637C70.8652 30.3809 71.1055 30.5449 71.3047 30.7559C71.5156 30.9551 71.6797 31.1953 71.7969 31.4766C71.9258 31.7461 71.9902 32.0332 71.9902 32.3379C71.9902 32.6543 71.9258 32.9531 71.7969 33.2344C71.6797 33.5156 71.5156 33.7676 71.3047 33.9902C71.1055 34.2012 70.8652 34.3711 70.584 34.5C70.3145 34.6172 70.0273 34.6758 69.7227 34.6758C69.4062 34.6758 69.1074 34.6172 68.8262 34.5C68.5449 34.3711 68.2988 34.2012 68.0879 33.9902C67.8887 33.7676 67.7246 33.5156 67.5957 33.2344C67.4785 32.9531 67.4199 32.6543 67.4199 32.3379ZM87.6172 62.2559H90.2539V55.5762C89.668 56.1504 88.9941 56.6016 88.2324 56.9297C87.4707 57.2461 86.6094 57.4043 85.6484 57.4043C84.418 57.4043 83.2695 57.1934 82.2031 56.7715C81.1484 56.3379 80.2285 55.7109 79.4434 54.8906C78.6699 54.0586 78.0605 53.0449 77.6152 51.8496C77.1816 50.6426 76.9648 49.2656 76.9648 47.7188C76.9648 46.3125 77.1758 45.0352 77.5977 43.8867C78.0195 42.7266 78.6172 41.7422 79.3906 40.9336C80.1641 40.1133 81.0957 39.4805 82.1855 39.0352C83.2754 38.5781 84.4883 38.3496 85.8242 38.3496C86.7031 38.3496 87.4941 38.4492 88.1973 38.6484C88.9004 38.8359 89.5859 39.1523 90.2539 39.5977V38.7891H93.5234V62.2559H96.2656V65.2793H87.6172V62.2559ZM86.0703 54.5566C87.0664 54.5566 87.9102 54.3926 88.6016 54.0645C89.293 53.7363 89.8438 53.3496 90.2539 52.9043V42.5859C89.668 42.1055 89 41.7598 88.25 41.5488C87.5117 41.3379 86.75 41.2324 85.9648 41.2324C85.1914 41.2324 84.4648 41.3789 83.7852 41.6719C83.1055 41.9531 82.5078 42.375 81.9922 42.9375C81.4883 43.4883 81.0898 44.1621 80.7969 44.959C80.5039 45.7559 80.3574 46.6641 80.3574 47.6836C80.3574 48.8086 80.498 49.7988 80.7793 50.6543C81.0605 51.5098 81.4531 52.2305 81.957 52.8164C82.4609 53.3906 83.0645 53.8242 83.7676 54.1172C84.4707 54.4102 85.2383 54.5566 86.0703 54.5566ZM109.273 38.7891H115.145V53.9766H117.166V57H111.857V55.3125C111.037 55.9453 110.141 56.4375 109.168 56.7891C108.207 57.1406 107.176 57.3164 106.074 57.3164C105.16 57.3164 104.328 57.1875 103.578 56.9297C102.84 56.6602 102.207 56.25 101.68 55.6992C101.164 55.1367 100.766 54.4277 100.484 53.5723C100.203 52.7168 100.062 51.6973 100.062 50.5137V41.8125H97.6016V38.7891H103.473V50.127C103.473 51.5215 103.795 52.5762 104.439 53.291C105.084 54.0059 106.01 54.3633 107.217 54.3633C107.932 54.3633 108.682 54.2344 109.467 53.9766C110.264 53.7188 111.014 53.3613 111.717 52.9043V41.8125H109.273V38.7891ZM121.895 38.7891H127.836V53.9766H130.578V57H121.93V53.9766H124.531V41.8125H121.895V38.7891ZM123.916 32.3379C123.916 32.0332 123.975 31.7461 124.092 31.4766C124.221 31.1953 124.385 30.9551 124.584 30.7559C124.795 30.5449 125.041 30.3809 125.322 30.2637C125.604 30.1348 125.902 30.0703 126.219 30.0703C126.523 30.0703 126.811 30.1348 127.08 30.2637C127.361 30.3809 127.602 30.5449 127.801 30.7559C128.012 30.9551 128.176 31.1953 128.293 31.4766C128.422 31.7461 128.486 32.0332 128.486 32.3379C128.486 32.6543 128.422 32.9531 128.293 33.2344C128.176 33.5156 128.012 33.7676 127.801 33.9902C127.602 34.2012 127.361 34.3711 127.08 34.5C126.811 34.6172 126.523 34.6758 126.219 34.6758C125.902 34.6758 125.604 34.6172 125.322 34.5C125.041 34.3711 124.795 34.2012 124.584 33.9902C124.385 33.7676 124.221 33.5156 124.092 33.2344C123.975 32.9531 123.916 32.6543 123.916 32.3379ZM144.342 29.6484H150.09V53.9766H152.762V57H146.82V55.5059C146.234 56.1035 145.555 56.5723 144.781 56.9121C144.008 57.2402 143.129 57.4043 142.145 57.4043C140.914 57.4043 139.766 57.1934 138.699 56.7715C137.645 56.3379 136.725 55.7109 135.939 54.8906C135.166 54.0586 134.557 53.0449 134.111 51.8496C133.678 50.6426 133.461 49.2656 133.461 47.7188C133.461 46.3125 133.672 45.0352 134.094 43.8867C134.516 42.7266 135.113 41.7422 135.887 40.9336C136.66 40.1133 137.592 39.4805 138.682 39.0352C139.771 38.5781 140.984 38.3496 142.32 38.3496C143.199 38.3496 144.002 38.4492 144.729 38.6484C145.455 38.8359 146.152 39.1699 146.82 39.6504V32.6719H144.342V29.6484ZM142.566 54.5566C143.539 54.5566 144.354 54.416 145.01 54.1348C145.666 53.8418 146.27 53.4082 146.82 52.834V42.6387C146.234 42.1465 145.561 41.7891 144.799 41.5664C144.037 41.3438 143.258 41.2324 142.461 41.2324C141.688 41.2324 140.961 41.3789 140.281 41.6719C139.602 41.9531 139.004 42.3691 138.488 42.9199C137.984 43.4707 137.586 44.1445 137.293 44.9414C137 45.7383 136.854 46.6523 136.854 47.6836C136.854 48.8086 136.994 49.7988 137.275 50.6543C137.557 51.5098 137.949 52.2305 138.453 52.8164C138.957 53.3906 139.561 53.8242 140.264 54.1172C140.967 54.4102 141.734 54.5566 142.566 54.5566ZM155.75 38.7891H161.691V53.9766H164.434V57H155.785V53.9766H158.387V41.8125H155.75V38.7891ZM157.771 32.3379C157.771 32.0332 157.83 31.7461 157.947 31.4766C158.076 31.1953 158.24 30.9551 158.439 30.7559C158.65 30.5449 158.896 30.3809 159.178 30.2637C159.459 30.1348 159.758 30.0703 160.074 30.0703C160.379 30.0703 160.666 30.1348 160.936 30.2637C161.217 30.3809 161.457 30.5449 161.656 30.7559C161.867 30.9551 162.031 31.1953 162.148 31.4766C162.277 31.7461 162.342 32.0332 162.342 32.3379C162.342 32.6543 162.277 32.9531 162.148 33.2344C162.031 33.5156 161.867 33.7676 161.656 33.9902C161.457 34.2012 161.217 34.3711 160.936 34.5C160.666 34.6172 160.379 34.6758 160.074 34.6758C159.758 34.6758 159.459 34.6172 159.178 34.5C158.896 34.3711 158.65 34.2012 158.439 33.9902C158.24 33.7676 158.076 33.5156 157.947 33.2344C157.83 32.9531 157.771 32.6543 157.771 32.3379ZM172.73 38.7891H177.002V41.4434H172.695L172.643 51.9551C172.643 52.6699 172.725 53.25 172.889 53.6953C173.053 54.1406 173.316 54.4512 173.68 54.627C174.043 54.791 174.453 54.873 174.91 54.873C175.402 54.873 175.836 54.832 176.211 54.75C176.586 54.6562 176.996 54.5039 177.441 54.293L178.197 56.4902C177.635 56.7832 177.043 57.0117 176.422 57.1758C175.801 57.3516 175.068 57.4395 174.225 57.4395C173.428 57.4395 172.73 57.3398 172.133 57.1406C171.547 56.9531 171.049 56.6309 170.639 56.1738C170.24 55.7168 169.941 55.1074 169.742 54.3457C169.543 53.5723 169.443 52.6113 169.443 51.4629L169.496 41.4434H166.596V38.7891H169.531V34.4297L172.73 32.918V38.7891ZM179.639 38.7891H186.547V41.8125H184.385L188.656 53.4316L193.121 41.8125H190.977V38.7891H197.885V41.8125H196.004L187.9 62.2559H190.396V65.2793H183.049V62.2559H185.264L187.197 57.2461L181.115 41.8125H179.639V38.7891ZM210.154 30.3516H220.93C222.125 30.3516 223.221 30.5098 224.217 30.8262C225.225 31.1309 226.092 31.5879 226.818 32.1973C227.557 32.7949 228.125 33.5449 228.523 34.4473C228.934 35.3496 229.139 36.3867 229.139 37.5586C229.139 38.5312 228.939 39.4512 228.541 40.3184C228.143 41.1738 227.58 41.9238 226.854 42.5684C226.127 43.2129 225.254 43.7227 224.234 44.0977C223.227 44.4727 222.102 44.6602 220.859 44.6602H216.131V53.9766H218.803V57H210.154V53.9766H212.686V33.3926H210.154V30.3516ZM216.131 33.3926V41.7773H220.93C221.598 41.7773 222.207 41.6895 222.758 41.5137C223.32 41.3262 223.801 41.0566 224.199 40.7051C224.609 40.3535 224.926 39.9141 225.148 39.3867C225.383 38.8594 225.5 38.25 225.5 37.5586C225.5 36.2461 225.102 35.2266 224.305 34.5C223.508 33.7617 222.236 33.3926 220.49 33.3926H216.131ZM231.512 47.8945C231.523 46.4531 231.752 45.1406 232.197 43.957C232.654 42.7734 233.287 41.7598 234.096 40.916C234.904 40.0605 235.865 39.4043 236.979 38.9473C238.092 38.4902 239.316 38.2617 240.652 38.2617C242 38.2617 243.23 38.4902 244.344 38.9473C245.469 39.4043 246.43 40.0547 247.227 40.8984C248.023 41.7305 248.645 42.7383 249.09 43.9219C249.535 45.1055 249.758 46.418 249.758 47.8594C249.758 49.2773 249.535 50.584 249.09 51.7793C248.645 52.9629 248.023 53.9824 247.227 54.8379C246.43 55.6934 245.469 56.3613 244.344 56.8418C243.23 57.3105 242 57.5449 240.652 57.5449C239.281 57.5449 238.039 57.3105 236.926 56.8418C235.812 56.373 234.857 55.7168 234.061 54.873C233.264 54.0176 232.643 52.998 232.197 51.8145C231.752 50.6309 231.523 49.3242 231.512 47.8945ZM234.975 47.8945C234.975 48.9375 235.121 49.8809 235.414 50.7246C235.719 51.5684 236.129 52.2891 236.645 52.8867C237.172 53.4727 237.775 53.9297 238.455 54.2578C239.146 54.5742 239.879 54.7324 240.652 54.7324C241.461 54.7324 242.211 54.5742 242.902 54.2578C243.605 53.9414 244.215 53.4902 244.73 52.9043C245.246 52.3066 245.65 51.5859 245.943 50.7422C246.236 49.8984 246.383 48.9492 246.383 47.8945C246.383 46.793 246.236 45.8145 245.943 44.959C245.65 44.1035 245.246 43.3887 244.73 42.8145C244.227 42.2402 243.623 41.8066 242.92 41.5137C242.217 41.2207 241.461 41.0742 240.652 41.0742C239.879 41.0742 239.146 41.2207 238.455 41.5137C237.775 41.8066 237.172 42.2402 236.645 42.8145C236.129 43.3887 235.719 44.1035 235.414 44.959C235.121 45.8145 234.975 46.793 234.975 47.8945ZM253.062 47.8945C253.074 46.4531 253.303 45.1406 253.748 43.957C254.205 42.7734 254.838 41.7598 255.646 40.916C256.455 40.0605 257.416 39.4043 258.529 38.9473C259.643 38.4902 260.867 38.2617 262.203 38.2617C263.551 38.2617 264.781 38.4902 265.895 38.9473C267.02 39.4043 267.98 40.0547 268.777 40.8984C269.574 41.7305 270.195 42.7383 270.641 43.9219C271.086 45.1055 271.309 46.418 271.309 47.8594C271.309 49.2773 271.086 50.584 270.641 51.7793C270.195 52.9629 269.574 53.9824 268.777 54.8379C267.98 55.6934 267.02 56.3613 265.895 56.8418C264.781 57.3105 263.551 57.5449 262.203 57.5449C260.832 57.5449 259.59 57.3105 258.477 56.8418C257.363 56.373 256.408 55.7168 255.611 54.873C254.814 54.0176 254.193 52.998 253.748 51.8145C253.303 50.6309 253.074 49.3242 253.062 47.8945ZM256.525 47.8945C256.525 48.9375 256.672 49.8809 256.965 50.7246C257.27 51.5684 257.68 52.2891 258.195 52.8867C258.723 53.4727 259.326 53.9297 260.006 54.2578C260.697 54.5742 261.43 54.7324 262.203 54.7324C263.012 54.7324 263.762 54.5742 264.453 54.2578C265.156 53.9414 265.766 53.4902 266.281 52.9043C266.797 52.3066 267.201 51.5859 267.494 50.7422C267.787 49.8984 267.934 48.9492 267.934 47.8945C267.934 46.793 267.787 45.8145 267.494 44.959C267.201 44.1035 266.797 43.3887 266.281 42.8145C265.777 42.2402 265.174 41.8066 264.471 41.5137C263.768 41.2207 263.012 41.0742 262.203 41.0742C261.43 41.0742 260.697 41.2207 260.006 41.5137C259.326 41.8066 258.723 42.2402 258.195 42.8145C257.68 43.3887 257.27 44.1035 256.965 44.959C256.672 45.8145 256.525 46.793 256.525 47.8945ZM274.719 29.6484H280.625V53.9766H283.367V57H274.719V53.9766H277.355V32.6719H274.719V29.6484Z" fill="white"/>
<path d="M57.6841 90.146C57.6841 89.687 57.577 89.228 57.3628 88.769C57.1639 88.3101 56.8656 87.897 56.4678 87.5298C56.0853 87.1626 55.6187 86.8643 55.0679 86.6348C54.5324 86.4053 53.9357 86.2905 53.2778 86.2905C52.7118 86.2905 52.1686 86.39 51.6484 86.5889C51.1436 86.7725 50.6922 87.0249 50.2944 87.3462C49.9119 87.6675 49.606 88.0423 49.3765 88.4707C49.147 88.8838 49.0322 89.5952 49.0322 90.605L41.895 90.5591C41.9103 89.075 42.1934 87.6598 42.7441 86.3135C43.2949 84.9671 44.0599 83.7814 45.0391 82.7563C46.0335 81.7313 47.2269 80.9204 48.6191 80.3237C50.0114 79.7271 51.5643 79.4287 53.2778 79.4287C54.8996 79.4287 56.4142 79.7118 57.8218 80.2778C59.2293 80.8286 60.4533 81.5783 61.4937 82.5269C62.534 83.4754 63.3449 84.5693 63.9263 85.8086C64.5229 87.0479 64.8213 88.3483 64.8213 89.71C64.8213 91.194 64.5153 92.548 63.9033 93.772C63.2913 94.9806 62.4575 95.9598 61.4019 96.7095C61.9526 97.0155 62.4652 97.4209 62.9395 97.9258C63.4137 98.4307 63.8268 99.012 64.1787 99.6699C64.5459 100.328 64.8289 101.047 65.0278 101.827C65.242 102.607 65.3491 103.426 65.3491 104.283C65.3491 105.782 65.0431 107.205 64.4312 108.551C63.8192 109.898 62.9701 111.083 61.8838 112.108C60.8128 113.118 59.543 113.921 58.0742 114.518C56.6055 115.115 55.022 115.413 53.3237 115.413C51.7173 115.413 50.2179 115.161 48.8257 114.656C47.4487 114.151 46.2401 113.455 45.1997 112.567C44.1593 111.665 43.3179 110.609 42.6753 109.4C42.048 108.176 41.6732 107.159 41.5508 106.348C41.4437 105.537 41.3825 104.696 41.3672 103.824H48.5732C48.665 105.43 49.124 106.616 49.9502 107.381C50.7917 108.131 51.9468 108.505 53.4155 108.505C54.0734 108.505 54.6854 108.398 55.2515 108.184C55.8328 107.955 56.3377 107.656 56.7661 107.289C57.1945 106.907 57.5311 106.463 57.7759 105.958C58.036 105.453 58.166 104.91 58.166 104.329C58.166 103.717 58.0513 103.151 57.8218 102.63C57.6076 102.095 57.2939 101.644 56.8809 101.276C56.4678 100.894 55.9629 100.596 55.3662 100.381C54.7695 100.167 54.104 100.06 53.3696 100.06H50.1567V93.7949H53.4155C54.0887 93.7949 54.6854 93.7031 55.2056 93.5195C55.741 93.3359 56.1924 93.0835 56.5596 92.7622C56.9268 92.4409 57.2021 92.0584 57.3857 91.6147C57.5846 91.1711 57.6841 90.6815 57.6841 90.146ZM70.811 88.2183C70.811 87.0708 71.0252 85.9845 71.4536 84.9595C71.882 83.9344 72.4787 83.0394 73.2437 82.2744C74.0239 81.4941 74.9419 80.8822 75.9976 80.4385C77.0685 79.9795 78.2389 79.75 79.5088 79.75C80.7786 79.75 81.9414 79.9795 82.9971 80.4385C84.068 80.8822 84.986 81.4941 85.751 82.2744C86.5312 83.0394 87.1356 83.9344 87.564 84.9595C87.9924 85.9845 88.2065 87.0708 88.2065 88.2183C88.2065 89.3504 87.9924 90.429 87.564 91.4541C87.1509 92.4639 86.5618 93.3589 85.7969 94.1392C85.0472 94.9041 84.1369 95.5161 83.0659 95.9751C81.995 96.4341 80.8092 96.6636 79.5088 96.6636C78.193 96.6636 76.9997 96.4417 75.9287 95.998C74.873 95.5391 73.9627 94.9271 73.1978 94.1621C72.4328 93.3818 71.8438 92.4792 71.4307 91.4541C71.0176 90.429 70.811 89.3504 70.811 88.2183ZM79.5088 85.0513C79.0651 85.0513 78.6444 85.1278 78.2466 85.2808C77.8641 85.4338 77.5275 85.6479 77.2368 85.9233C76.9461 86.1987 76.7166 86.5353 76.5483 86.9331C76.3953 87.3156 76.3188 87.744 76.3188 88.2183C76.3188 88.6466 76.3953 89.0597 76.5483 89.4575C76.7166 89.84 76.9461 90.1766 77.2368 90.4673C77.5275 90.758 77.8641 90.9875 78.2466 91.1558C78.6444 91.3241 79.0651 91.4082 79.5088 91.4082C79.9525 91.4082 80.3656 91.3241 80.748 91.1558C81.1458 90.9875 81.4824 90.7656 81.7578 90.4902C82.0485 90.1995 82.278 89.863 82.4463 89.4805C82.6146 89.0827 82.6987 88.6619 82.6987 88.2183C82.6987 87.744 82.6146 87.3156 82.4463 86.9331C82.278 86.5353 82.0485 86.1987 81.7578 85.9233C81.4824 85.6479 81.1458 85.4338 80.748 85.2808C80.3656 85.1278 79.9525 85.0513 79.5088 85.0513ZM97.4092 79.6582H103.514L79.9907 115H73.8862L97.4092 79.6582ZM89.4688 106.302C89.4688 105.155 89.6829 104.069 90.1113 103.043C90.5397 102.018 91.1364 101.123 91.9014 100.358C92.6816 99.5781 93.5996 98.9661 94.6553 98.5225C95.7262 98.0635 96.8966 97.834 98.1665 97.834C99.4364 97.834 100.599 98.0635 101.655 98.5225C102.726 98.9661 103.644 99.5781 104.409 100.358C105.189 101.123 105.793 102.018 106.222 103.043C106.65 104.069 106.864 105.155 106.864 106.302C106.864 107.434 106.65 108.513 106.222 109.538C105.809 110.563 105.22 111.466 104.455 112.246C103.705 113.011 102.795 113.623 101.724 114.082C100.653 114.541 99.467 114.771 98.1665 114.771C96.866 114.771 95.6803 114.549 94.6094 114.105C93.5384 113.646 92.6204 113.034 91.8555 112.269C91.1058 111.489 90.5168 110.586 90.0884 109.561C89.6753 108.536 89.4688 107.45 89.4688 106.302ZM98.1665 103.158C97.7228 103.158 97.3021 103.235 96.9043 103.388C96.5218 103.541 96.1852 103.755 95.8945 104.03C95.6038 104.306 95.3743 104.635 95.2061 105.017C95.0531 105.4 94.9766 105.828 94.9766 106.302C94.9766 106.746 95.0531 107.159 95.2061 107.542C95.3743 107.924 95.6038 108.261 95.8945 108.551C96.1852 108.842 96.5218 109.071 96.9043 109.24C97.3021 109.408 97.7228 109.492 98.1665 109.492C98.6102 109.492 99.0233 109.416 99.4058 109.263C99.8035 109.094 100.14 108.865 100.416 108.574C100.706 108.284 100.936 107.947 101.104 107.564C101.272 107.167 101.356 106.746 101.356 106.302C101.356 105.828 101.272 105.4 101.104 105.017C100.936 104.635 100.706 104.306 100.416 104.03C100.14 103.755 99.8035 103.541 99.4058 103.388C99.0233 103.235 98.6102 103.158 98.1665 103.158Z" fill="url(#paint3_linear_2563_677)"/>
<path d="M43.5137 161.977H46.0449V141.393H43.5137V138.316L55.502 138.352C56.5801 138.352 57.5938 138.557 58.543 138.967C59.4922 139.365 60.3184 139.916 61.0215 140.619C61.7246 141.311 62.2754 142.131 62.6738 143.08C63.084 144.029 63.2891 145.049 63.2891 146.139C63.2891 147.275 62.9727 148.312 62.3398 149.25C61.707 150.188 60.8047 150.938 59.6328 151.5C60.207 151.805 60.7285 152.162 61.1973 152.572C61.666 152.971 62.0645 153.41 62.3926 153.891C62.7207 154.371 62.9727 154.881 63.1484 155.42C63.3359 155.959 63.4297 156.51 63.4297 157.072C63.4297 158.186 63.2246 159.223 62.8145 160.184C62.416 161.145 61.8652 161.982 61.1621 162.697C60.459 163.412 59.6328 163.975 58.6836 164.385C57.7461 164.795 56.7383 165 55.6602 165H43.5137V161.977ZM49.4902 153.152V161.977H55.6953C56.2578 161.977 56.7793 161.836 57.2598 161.555C57.7402 161.273 58.1621 160.91 58.5254 160.465C58.8887 160.008 59.1699 159.492 59.3691 158.918C59.5801 158.344 59.6855 157.758 59.6855 157.16C59.6855 156.645 59.5801 156.146 59.3691 155.666C59.1582 155.186 58.8711 154.758 58.5078 154.383C58.1562 154.008 57.7344 153.709 57.2422 153.486C56.7617 153.264 56.2461 153.152 55.6953 153.152H49.4902ZM49.4902 141.393V150.094H55.5371C56.0996 150.094 56.6211 149.982 57.1016 149.76C57.5938 149.537 58.0156 149.238 58.3672 148.863C58.7305 148.488 59.0176 148.055 59.2285 147.562C59.4395 147.07 59.5449 146.561 59.5449 146.033C59.5449 145.459 59.4395 144.896 59.2285 144.346C59.0176 143.783 58.7305 143.285 58.3672 142.852C58.0039 142.418 57.5762 142.066 57.084 141.797C56.6035 141.527 56.0879 141.393 55.5371 141.393H49.4902ZM77.4922 146.789H83.3633V161.977H85.3848V165H80.0762V163.312C79.2559 163.945 78.3594 164.438 77.3867 164.789C76.4258 165.141 75.3945 165.316 74.293 165.316C73.3789 165.316 72.5469 165.188 71.7969 164.93C71.0586 164.66 70.4258 164.25 69.8984 163.699C69.3828 163.137 68.9844 162.428 68.7031 161.572C68.4219 160.717 68.2812 159.697 68.2812 158.514V149.812H65.8203V146.789H71.6914V158.127C71.6914 159.521 72.0137 160.576 72.6582 161.291C73.3027 162.006 74.2285 162.363 75.4355 162.363C76.1504 162.363 76.9004 162.234 77.6855 161.977C78.4824 161.719 79.2324 161.361 79.9355 160.904V149.812H77.4922V146.789ZM89.041 146.789H95.9492V149.812H93.7871L98.0586 161.432L102.523 149.812H100.379V146.789H107.287V149.812H105.406L97.3027 170.256H99.7988V173.279H92.4512V170.256H94.666L96.5996 165.246L90.5176 149.812H89.041V146.789ZM120.365 137.42H123.424L112.877 165.51H109.818L120.365 137.42ZM140.246 145.594C140.246 144.562 140.059 143.789 139.684 143.273C139.309 142.758 138.893 142.365 138.436 142.096C137.99 141.814 137.498 141.604 136.959 141.463C136.42 141.311 135.881 141.234 135.342 141.234C134.451 141.234 133.672 141.34 133.004 141.551C132.336 141.75 131.779 142.025 131.334 142.377C130.9 142.729 130.572 143.139 130.35 143.607C130.127 144.076 130.016 144.568 130.016 145.084C130.016 145.857 130.15 146.484 130.42 146.965C130.701 147.434 131.053 147.814 131.475 148.107C131.896 148.389 132.359 148.611 132.863 148.775C133.379 148.939 133.871 149.104 134.34 149.268L137.891 150.428C138.957 150.768 139.895 151.154 140.703 151.588C141.523 152.021 142.209 152.537 142.76 153.135C143.311 153.721 143.727 154.4 144.008 155.174C144.301 155.947 144.447 156.844 144.447 157.863C144.447 158.965 144.219 159.984 143.762 160.922C143.316 161.859 142.689 162.674 141.881 163.365C141.072 164.057 140.105 164.602 138.98 165C137.867 165.387 136.643 165.58 135.307 165.58C133.936 165.58 132.764 165.422 131.791 165.105C130.818 164.801 129.998 164.391 129.33 163.875C128.674 163.348 128.146 162.75 127.748 162.082C127.35 161.414 127.039 160.729 126.816 160.025H125.48V157.002H129.91C129.91 158.303 130.045 159.223 130.314 159.762C130.596 160.301 130.982 160.752 131.475 161.115C131.967 161.467 132.553 161.736 133.232 161.924C133.912 162.1 134.662 162.188 135.482 162.188C136.279 162.188 136.994 162.094 137.627 161.906C138.271 161.719 138.816 161.449 139.262 161.098C139.719 160.734 140.064 160.301 140.299 159.797C140.545 159.281 140.668 158.701 140.668 158.057C140.668 157.342 140.516 156.738 140.211 156.246C139.918 155.742 139.537 155.314 139.068 154.963C138.6 154.611 138.084 154.324 137.521 154.102C136.971 153.879 136.438 153.686 135.922 153.521L132.072 152.432C131.229 152.174 130.455 151.846 129.752 151.447C129.061 151.049 128.463 150.562 127.959 149.988C127.467 149.414 127.086 148.746 126.816 147.984C126.547 147.211 126.412 146.32 126.412 145.312C126.412 144.293 126.611 143.338 127.01 142.447C127.408 141.557 127.994 140.777 128.768 140.109C129.541 139.441 130.484 138.92 131.598 138.545C132.723 138.158 134.006 137.965 135.447 137.965C136.396 137.965 137.27 138.076 138.066 138.299C138.875 138.521 139.602 138.838 140.246 139.248C140.902 139.646 141.477 140.133 141.969 140.707C142.473 141.27 142.895 141.891 143.234 142.57H144.553V145.594H140.246ZM150.195 156.316C150.195 156.832 150.23 157.307 150.301 157.74C150.383 158.162 150.494 158.566 150.635 158.953C151.068 160.125 151.76 161.01 152.709 161.607C153.67 162.193 154.754 162.486 155.961 162.486C156.91 162.486 157.83 162.357 158.721 162.1C159.623 161.83 160.566 161.414 161.551 160.852L162.869 163.084C161.674 163.904 160.473 164.514 159.266 164.912C158.059 165.311 156.805 165.51 155.504 165.51C154.273 165.51 153.131 165.305 152.076 164.895C151.033 164.484 150.131 163.875 149.369 163.066C148.619 162.258 148.027 161.25 147.594 160.043C147.172 158.836 146.961 157.43 146.961 155.824C146.961 154.523 147.143 153.299 147.506 152.15C147.869 150.99 148.408 149.982 149.123 149.127C149.85 148.26 150.746 147.574 151.812 147.07C152.879 146.566 154.121 146.314 155.539 146.314C156.91 146.314 158.053 146.525 158.967 146.947C159.893 147.357 160.643 147.908 161.217 148.6C161.803 149.279 162.242 150.059 162.535 150.938C162.84 151.816 163.051 152.713 163.168 153.627C163.227 154.072 163.262 154.523 163.273 154.98C163.297 155.438 163.309 155.883 163.309 156.316H150.195ZM155.311 149.057C154.549 149.057 153.881 149.168 153.307 149.391C152.744 149.602 152.264 149.912 151.865 150.322C151.467 150.721 151.145 151.213 150.898 151.799C150.664 152.385 150.488 153.041 150.371 153.768H159.811C159.764 153.088 159.652 152.461 159.477 151.887C159.312 151.312 159.055 150.814 158.703 150.393C158.352 149.971 157.9 149.643 157.35 149.408C156.799 149.174 156.119 149.057 155.311 149.057ZM167.633 137.648H173.539V161.977H176.281V165H167.633V161.977H170.27V140.672H167.633V137.648ZM179.34 137.648H185.246V161.977H187.988V165H179.34V161.977H181.977V140.672H179.34V137.648Z" fill="white"/>
<defs>
<linearGradient id="paint0_linear_2563_677" x1="10" y1="191.499" x2="651.799" y2="191.499" gradientUnits="userSpaceOnUse">
<stop stop-color="#4AB0FF" stop-opacity="0.76"/>
<stop stop-color="#46A5FF"/>
<stop offset="1" stop-color="#C628F7" stop-opacity="0.44"/>
</linearGradient>
<linearGradient id="paint1_linear_2563_677" x1="10" y1="106.26" x2="622.021" y2="96.5224" gradientUnits="userSpaceOnUse">
<stop stop-color="#F1E71A"/>
<stop offset="1" stop-color="#D515FE"/>
</linearGradient>
<linearGradient id="paint2_linear_2563_677" x1="1" y1="112.136" x2="622.028" y2="102.464" gradientUnits="userSpaceOnUse">
<stop stop-color="#F1E71A"/>
<stop offset="1" stop-color="#D515FE"/>
</linearGradient>
<linearGradient id="paint3_linear_2563_677" x1="41" y1="100.471" x2="109.016" y2="99.9718" gradientUnits="userSpaceOnUse">
<stop stop-color="#F1E71A"/>
<stop offset="1" stop-color="#D515FE"/>
</linearGradient>
</defs>
</svg>
